<svg width="24" height="24" viewBox="0 0 24 24" fill="none" xmlns="http://www.w3.org/2000/svg">
<rect x="2" y="2" width="2" height="20" rx="1" fill="black"/>
<rect x="6" y="16" width="3" height="6" rx="1.5" fill="#505050"/>
<rect x="8" y="12" width="2" height="10" rx="1" fill="#505050"/>
<rect x="9" y="11" width="2" height="11" rx="1" fill="#505050"/>
<rect x="10" y="11" width="2" height="11" rx="1" fill="#505050"/>
<rect x="11" y="12" width="2" height="10" rx="1" fill="#505050"/>
<rect x="12" y="13" width="2" height="9" rx="1" fill="#505050"/>
<rect x="13" y="14" width="2" height="8" rx="1" fill="#505050"/>
<rect x="14" y="14" width="2" height="8" rx="1" fill="#505050"/>
<rect x="15" y="13" width="2" height="9" rx="1" fill="#505050"/>
<rect x="16" y="11" width="2" height="11" rx="1" fill="#505050"/>
<rect x="17" y="9" width="2" height="13" rx="1" fill="#505050"/>
<rect x="22" y="20" width="2" height="20" rx="1" transform="rotate(90 22 20)" fill="black"/>
<circle cx="9.54253" cy="9.89559" r="1.5" transform="rotate(-70 9.54253 9.89559)" fill="black"/>
<circle cx="7.14838" cy="16.4734" r="1.5" transform="rotate(-70 7.14838 16.4734)" fill="black"/>
<line x1="7.31939" y1="16.0036" x2="9.16123" y2="10.9432" stroke="black"/>
<circle cx="14.6569" cy="14.6569" r="1.5" transform="rotate(45 14.6569 14.6569)" fill="black"/>
<line x1="10.0607" y1="10.0607" x2="13.8685" y2="13.8685" stroke="black"/>
<circle cx="17.549" cy="10.049" r="1.5" transform="rotate(-60 17.549 10.049)" fill="black"/>
<line x1="14.299" y1="15.6782" x2="16.9916" y2="11.0145" stroke="black"/>
</svg>
